<svg width="340" height="52" viewBox="0 0 340 52" fill="none" xmlns="http://www.w3.org/2000/svg">
<path d="M24.8359 5.80859C21.2969 5.80859 18.25 6.05469 15.6953 6.54688C13.1406 7.01562 11.0312 7.75391 9.36719 8.76172C7.72656 9.76953 6.50781 11.0586 5.71094 12.6289C4.91406 14.1992 4.51562 16.0742 4.51562 18.2539V23.6328H45.7891V27.7461H4.51562V50H0.121094V17.5156C0.121094 15.0312 0.554688 12.8047 1.42188 10.8359C2.3125 8.86719 3.71875 7.21484 5.64062 5.87891C7.5625 4.51953 10.0234 3.48828 13.0234 2.78516C16.0469 2.05859 19.6914 1.69531 23.957 1.69531H46.4922V5.80859H24.8359ZM94.832 5.42188C94.1523 5.21094 93.2031 4.98828 91.9844 4.75391C90.7891 4.49609 89.2422 4.36719 87.3438 4.36719C84.7188 4.36719 82.2461 4.69531 79.9258 5.35156C77.6289 5.98438 75.4844 6.85156 73.4922 7.95312C71.5234 9.05469 69.6953 10.3438 68.0078 11.8203C66.3203 13.2734 64.7969 14.8203 63.4375 16.4609V50H59.043V1.69531H63.4375V11.5391C65.0078 9.92188 66.707 8.43359 68.5352 7.07422C70.3867 5.71484 72.332 4.55469 74.3711 3.59375C76.4102 2.60938 78.543 1.84766 80.7695 1.30859C83.0195 0.746094 85.3398 0.464844 87.7305 0.464844C88.5508 0.464844 89.2891 0.488281 89.9453 0.535156C90.6016 0.558594 91.1992 0.605469 91.7383 0.675781C92.3008 0.722656 92.8281 0.78125 93.3203 0.851562C93.8125 0.921875 94.3164 1.00391 94.832 1.09766V5.42188ZM107.242 1.69531V33.582C107.219 36.2773 107.559 38.4922 108.262 40.2266C108.965 41.9609 109.973 43.332 111.285 44.3398C112.621 45.3242 114.227 46.0156 116.102 46.4141C118 46.7891 120.133 46.9766 122.5 46.9766C125.242 46.9766 127.926 46.6484 130.551 45.9922C133.176 45.3125 135.648 44.4688 137.969 43.4609C140.289 42.4297 142.41 41.293 144.332 40.0508C146.277 38.8086 147.93 37.6133 149.289 36.4648V1.69531H153.754V50H149.289V41.4922C147.648 42.5469 145.855 43.6484 143.91 44.7969C141.965 45.9219 139.855 46.9648 137.582 47.9258C135.332 48.8633 132.918 49.6367 130.34 50.2461C127.762 50.8555 125.031 51.1602 122.148 51.1602C118.891 51.1602 116.043 50.75 113.605 49.9297C111.191 49.1094 109.176 47.9609 107.559 46.4844C105.965 45.0078 104.77 43.2617 103.973 41.2461C103.176 39.207 102.777 36.9688 102.777 34.5312V1.69531H107.242ZM189.648 5.70312V50H185.289V5.70312H163.316V1.69531H211.621V5.70312H189.648ZM225.367 1.69531V33.582C225.344 36.2773 225.684 38.4922 226.387 40.2266C227.09 41.9609 228.098 43.332 229.41 44.3398C230.746 45.3242 232.352 46.0156 234.227 46.4141C236.125 46.7891 238.258 46.9766 240.625 46.9766C243.367 46.9766 246.051 46.6484 248.676 45.9922C251.301 45.3125 253.773 44.4688 256.094 43.4609C258.414 42.4297 260.535 41.293 262.457 40.0508C264.402 38.8086 266.055 37.6133 267.414 36.4648V1.69531H271.879V50H267.414V41.4922C265.773 42.5469 263.98 43.6484 262.035 44.7969C260.09 45.9219 257.98 46.9648 255.707 47.9258C253.457 48.8633 251.043 49.6367 248.465 50.2461C245.887 50.8555 243.156 51.1602 240.273 51.1602C237.016 51.1602 234.168 50.75 231.73 49.9297C229.316 49.1094 227.301 47.9609 225.684 46.4844C224.09 45.0078 222.895 43.2617 222.098 41.2461C221.301 39.207 220.902 36.9688 220.902 34.5312V1.69531H225.367ZM334.949 50V18.1133C334.949 15.4414 334.586 13.25 333.859 11.5391C333.156 9.80469 332.137 8.43359 330.801 7.42578C329.488 6.41797 327.883 5.71484 325.984 5.31641C324.086 4.91797 321.953 4.71875 319.586 4.71875C316.844 4.71875 314.148 5.05859 311.5 5.73828C308.875 6.39453 306.391 7.23828 304.047 8.26953C301.703 9.27734 299.547 10.4023 297.578 11.6445C295.609 12.8867 293.945 14.082 292.586 15.2305V50H288.191V1.69531H292.586V10.168C294.227 9.13672 296.031 8.05859 298 6.93359C299.992 5.78516 302.125 4.74219 304.398 3.80469C306.695 2.84375 309.145 2.05859 311.746 1.44922C314.348 0.839844 317.09 0.535156 319.973 0.535156C323.23 0.535156 326.066 0.933594 328.48 1.73047C330.918 2.50391 332.934 3.61719 334.527 5.07031C336.145 6.5 337.352 8.24609 338.148 10.3086C338.945 12.3477 339.344 14.6328 339.344 17.1641V50H334.949Z" fill="white"/>
</svg>
