<svg width="26" height="26" viewBox="0 0 26 26" fill="none" xmlns="http://www.w3.org/2000/svg">
<path d="M21.6666 2.16663H4.33329C3.13668 2.16663 2.16663 3.13668 2.16663 4.33329V8.66663C2.16663 9.86324 3.13668 10.8333 4.33329 10.8333H21.6666C22.8632 10.8333 23.8333 9.86324 23.8333 8.66663V4.33329C23.8333 3.13668 22.8632 2.16663 21.6666 2.16663Z" stroke="white" stroke-width="2" stroke-linecap="round" stroke-linejoin="round"/>
<path d="M21.6666 15.1666H4.33329C3.13668 15.1666 2.16663 16.1367 2.16663 17.3333V21.6666C2.16663 22.8632 3.13668 23.8333 4.33329 23.8333H21.6666C22.8632 23.8333 23.8333 22.8632 23.8333 21.6666V17.3333C23.8333 16.1367 22.8632 15.1666 21.6666 15.1666Z" stroke="white" stroke-width="2" stroke-linecap="round" stroke-linejoin="round"/>
<path d="M6.5 6.5H6.51125" stroke="white" stroke-width="2" stroke-linecap="round" stroke-linejoin="round"/>
<path d="M6.5 19.5H6.51125" stroke="white" stroke-width="2" stroke-linecap="round" stroke-linejoin="round"/>
</svg>
